#!OML:ASF H:\Pregnant\Project 1\Capture day 1\Session 1\femalepreg.ASF
:FULLY-SPECIFIED
:DEGREES
625
root -0.045683 16.4022 -32.1133 20.7898 4.43434 -2.02466
lowerback -14.3626 -2.24891 0.858107
upperback -6.96987 -3.1208 2.11476
thorax 0.7691 -1.54783 1.26263
lowerneck -22.4844 0.689446 5.79376
upperneck 25.4768 -1.11466 -0.185081
head 12.1207 0.0534832 -1.22695
rclavicle -1.25483e-014 1.39149e-015
rhumerus -50.626 -3.30867 -73.442
rradius 26.3263
rwrist -8.17856
rhand -17.8746 -20.7626
rfingers 7.12502
rthumb 8.3914 -50.5759
lclavicle -1.25483e-014 1.39149e-015
lhumerus -33.8886 -15.3132 87.6947
lradius 32.0481
lwrist 44.6783
lhand -24.2715 -2.03262
lfingers 7.12502
lthumb 2.21518 27.9356
rfemur -43.3897 17.18 10.8577
rtibia 29.7564
rfoot -5.11801 -19.9225
rtoes -12.1514
lfemur -15.5045 -12.8607 -16.4472
ltibia 11.2927
lfoot -13.554 0.805874
ltoes -17.2399
626
root -0.014412 16.4107 -32.2072 21.0787 4.64797 -1.89747
lowerback -14.2558 -2.41149 0.334098
upperback -6.95345 -3.26562 1.96759
thorax 0.752689 -1.61126 1.38557
lowerneck -22.7162 0.618145 6.01274
upperneck 25.2119 -1.37784 0.0471876
head 12.0573 -0.0162224 -1.218
rclavicle 4.26913e-014 -1.47101e-014
rhumerus -50.9077 -3.55554 -73.4168
rradius 26.5818
rwrist -8.31778
rhand -17.7939 -21.3925
rfingers 7.12502
rthumb 8.46928 -51.2027
lclavicle 4.26913e-014 -1.47101e-014
lhumerus -33.2786 -16.0721 87.8307
lradius 32.1412
lwrist 44.4433
lhand -24.1875 -1.72084
lfingers 7.12502
lthumb 2.29625 28.2466
rfemur -43.9557 17.6592 9.94553
rtibia 29.5267
rfoot -5.28136 -21.0913
rtoes -11.214
lfemur -16.5514 -12.9573 -16.5002
ltibia 11.7678
lfoot -13.4274 0.52776
ltoes -16.9681
627
root 0.0150715 16.4175 -32.3026 21.365 4.80441 -1.66963
lowerback -14.1202 -2.577 -0.313443
upperback -6.91603 -3.39988 1.78235
thorax 0.748499 -1.66737 1.54055
lowerneck -22.8331 0.513147 6.20033
upperneck 24.8272 -1.67927 0.333497
head 11.925 -0.103544 -1.18855
rclavicle 5.92821e-015 -3.62782e-015
rhumerus -51.1288 -3.81314 -73.4226
rradius 26.7776
rwrist -8.47349
rhand -17.6751 -21.9088
rfingers 7.12502
rthumb 8.58386 -51.7143
lclavicle 5.92821e-015 -3.62782e-015
lhumerus -32.6614 -16.9679 87.9693
lradius 32.2306
lwrist 44.3524
lhand -24.1103 -1.66004
lfingers 7.12502
lthumb 2.37083 28.3065
rfemur -44.6051 18.1703 8.8809
rtibia 29.4338
rfoot -5.65798 -22.3485
rtoes -10.084
lfemur -17.5302 -13.007 -16.6726
ltibia 12.1326
lfoot -13.2333 0.159166
ltoes -16.7895
628
root 0.0437067 16.4228 -32.3959 21.6144 4.86462 -1.36532
lowerback -13.963 -2.72511 -1.05564
upperback -6.85609 -3.50104 1.55924
thorax 0.759446 -1.7057 1.71458
lowerneck -22.8771 0.365815 6.26757
upperneck 24.387 -2.02438 0.753404
head 11.7604 -0.20744 -1.09594
rclavicle 4.27729e-014 3.37934e-015
rhumerus -51.3321 -4.09754 -73.4242
rradius 26.9365
rwrist -8.59935
rhand -17.5212 -22.1592
rfingers 7.12502
rthumb 8.73242 -51.9585
lclavicle 4.27729e-014 3.37934e-015
lhumerus -32.0723 -18.0197 88.1245
lradius 32.3326
lwrist 44.4215
lhand -24.0582 -1.77519
lfingers 7.12502
lthumb 2.4212 28.1908
rfemur -45.2763 18.6642 7.7508
rtibia 29.48
rfoot -6.05951 -23.5251
rtoes -9.59402
lfemur -18.3258 -12.993 -16.972
ltibia 12.3149
lfoot -12.9859 -0.248621
ltoes -16.679
629
root 0.0713002 16.4267 -32.4869 21.82 4.83171 -1.0279
lowerback -13.7786 -2.84602 -1.85022
upperback -6.77947 -3.56211 1.30726
thorax 0.773239 -1.72365 1.89475
lowerneck -22.9179 0.207091 6.30809
upperneck 23.9352 -2.38686 1.23004
head 11.5948 -0.316109 -0.981293
rclavicle 1.65488e-014 5.56597e-015
rhumerus -51.5807 -4.32704 -73.4855
rradius 27.1496
rwrist -8.79145
rhand -17.3956 -22.2905
rfingers 7.12502
rthumb 8.85357 -52.0847
lclavicle 1.65488e-014 5.56597e-015
lhumerus -31.5212 -19.1716 88.2677
lradius 32.4632
lwrist 44.5887
lhand -23.9969 -1.97161
lfingers 7.12502
lthumb 2.48039 27.9937
rfemur -45.9412 19.1209 6.63384
rtibia 29.6372
rfoot -6.41183 -24.5832
rtoes -9.88574
lfemur -18.9195 -12.9114 -17.3553
ltibia 12.2936
lfoot -12.6901 -0.667878
ltoes -16.5994
630
root 0.097088 16.4292 -32.5789 22.0164 4.75372 -0.667314
lowerback -13.5428 -2.94995 -2.6826
upperback -6.72145 -3.60015 1.03622
thorax 0.739435 -1.72908 2.08273
lowerneck -22.9825 0.0389657 6.31939
upperneck 23.5158 -2.76442 1.75471
head 11.4506 -0.428205 -0.847735
rclavicle 2.60284e-014 5.96354e-016
rhumerus -51.8851 -4.6365 -73.4881
rradius 27.3913
rwrist -8.87264
rhand -17.2788 -22.3149
rfingers 7.12502
rthumb 8.9663 -52.1044
lclavicle 2.60284e-014 5.96354e-016
lhumerus -31.045 -20.233 88.3504
lradius 32.658
lwrist 44.6539
lhand -23.8779 -2.25973
lfingers 7.12502
lthumb 2.59524 27.7042
rfemur -46.6215 19.5485 5.51732
rtibia 29.8611
rfoot -6.58993 -25.5759
rtoes -11.0271
lfemur -19.4063 -12.805 -17.7806
ltibia 12.1134
lfoot -12.3412 -1.08033
ltoes -16.5185
631
root 0.122428 16.4315 -32.671 22.2054 4.6253 -0.310631
lowerback -13.2894 -3.0267 -3.51375
upperback -6.64997 -3.60676 0.745652
thorax 0.706259 -1.71916 2.25465
lowerneck -23.2314 -0.114139 6.38374
upperneck 23.1872 -3.14687 2.24292
head 11.3778 -0.538421 -0.739353
rclavicle -8.82107e-016 -7.15625e-015
rhumerus -52.1828 -4.99828 -73.4959
rradius 27.6622
rwrist -8.92294
rhand -17.1824 -22.2522
rfingers 7.12502
rthumb 9.05934 -52.0377
lclavicle -8.82107e-016 -7.15625e-015
lhumerus -30.555 -21.1722 88.3236
lradius 32.9094
lwrist 44.5748
lhand -23.6549 -2.35815
lfingers 7.12502
lthumb 2.81066 27.6031
rfemur -47.2993 19.9397 4.43048
rtibia 30.1025
rfoot -6.69673 -26.4969
rtoes -12.4443
lfemur -19.8174 -12.6828 -18.2253
ltibia 11.842
lfoot -11.9766 -1.44245
ltoes -16.4003
632
root 0.147677 16.4337 -32.7639 22.3839 4.4531 -0.0075462
lowerback -13.0005 -3.06488 -4.28854
upperback -6.60324 -3.57565 0.463276
thorax 0.621585 -1.69006 2.41116
lowerneck -23.5292 -0.269648 6.45682
upperneck 22.9151 -3.52772 2.68276
head 11.3364 -0.651348 -0.651139
rclavicle -6.90777e-015 -3.97569e-015
rhumerus -52.4964 -5.34309 -73.5088
rradius 27.9131
rwrist -8.99963
rhand -17.0906 -22.1851
rfingers 7.12502
rthumb 9.14792 -51.9667
lclavicle -6.90777e-015 -3.97569e-015
lhumerus -30.1211 -21.9509 88.2464
lradius 33.2088
lwrist 44.323
lhand -23.3034 -2.43569
lfingers 7.12502
lthumb 3.15006 27.5208
rfemur -47.9844 20.345 3.39333
rtibia 30.3253
rfoot -6.86408 -27.3844
rtoes -13.6564
lfemur -20.1871 -12.5603 -18.6272
ltibia 11.5265
lfoot -11.6029 -1.72001
ltoes -16.2166
633
root 0.173866 16.436 -32.8568 22.5532 4.22757 0.232021
lowerback -12.7063 -3.06058 -4.98386
upperback -6.55566 -3.50274 0.185407
thorax 0.526107 -1.64107 2.53352
lowerneck -23.9041 -0.422608 6.57114
upperneck 22.6903 -3.90503 3.03627
head 11.3259 -0.767689 -0.601968
rclavicle 3.77691e-015 9.14409e-015
rhumerus -52.8078 -5.73467 -73.508
rradius 28.2177
rwrist -9.06717
rhand -16.9142 -22.1655
rfingers 7.12502
rthumb 9.31814 -51.9395
lclavicle 3.77691e-015 9.14409e-015
lhumerus -29.702 -22.6731 88.13
lradius 33.5426
lwrist 44.037
lhand -22.8867 -2.56976
lfingers 7.12502
lthumb 3.55255 27.3804
rfemur -48.6416 20.6934 2.46813
rtibia 30.4946
rfoot -7.15052 -28.1465
rtoes -14.5274
lfemur -20.5391 -12.445 -18.9775
ltibia 11.2156
lfoot -11.2382 -1.89002
ltoes -15.9456
634
root 0.201864 16.4389 -32.9488 22.7098 3.94668 0.40841
lowerback -12.4247 -3.01611 -5.58823
upperback -6.52362 -3.39125 -0.0760583
thorax 0.412317 -1.57339 2.62654
lowerneck -24.2346 -0.595304 6.63543
upperneck 22.4714 -4.27659 3.35243
head 11.3095 -0.891377 -0.557775
rclavicle 7.19104e-014 1.98785e-014
rhumerus -53.18 -5.96288 -73.6197
rradius 28.665
rwrist -9.34641
rhand -16.7104 -22.4579
rfingers 7.12502
rthumb 9.51473 -52.2231
lclavicle 7.19104e-014 1.98785e-014
lhumerus -29.3372 -23.3635 88.029
lradius 33.8986
lwrist 43.7635
lhand -22.4368 -2.7331
lfingers 7.12502
lthumb 3.98693 27.2093
rfemur -49.2612 20.9787 1.65378
rtibia 30.5878
rfoot -7.61958 -28.7543
rtoes -14.8516
lfemur -20.9057 -12.3428 -19.2785
ltibia 10.9852
lfoot -10.9177 -1.9387
ltoes -15.6246
635
root 0.231765 16.4428 -33.0395 22.8697 3.62241 0.498171
lowerback -12.181 -2.93427 -6.07359
upperback -6.51632 -3.24556 -0.30762
thorax 0.284111 -1.48952 2.68683
lowerneck -24.3548 -0.799954 6.65468
upperneck 22.1642 -4.63446 3.62103
head 11.2202 -1.02722 -0.520189
rclavicle -1.94312e-014 3.97569e-015
rhumerus -53.5694 -6.12497 -73.7413
rradius 29.1035
rwrist -9.68829
rhand -16.4234 -22.5941
rfingers 7.12502
rthumb 9.79164 -52.3465
lclavicle -1.94312e-014 3.97569e-015
lhumerus -29.0308 -24.0473 87.9646
lradius 34.2625
lwrist 43.5528
lhand -21.9765 -2.87836
lfingers 7.12502
lthumb 4.43145 27.0553
rfemur -49.8466 21.1635 0.99959
rtibia 30.5901
rfoot -8.28974 -29.1705
rtoes -14.5227
lfemur -21.3477 -12.2504 -19.495
ltibia 10.903
lfoot -10.6613 -1.87187
ltoes -15.2559
636
root 0.263581 16.4479 -33.1289 23.031 3.26972 0.49122
lowerback -11.9694 -2.82189 -6.42547
upperback -6.5357 -3.07542 -0.498879
thorax 0.13787 -1.39447 2.716
lowerneck -24.2947 -1.04864 6.52369
upperneck 21.8042 -4.98535 3.93089
head 11.0833 -1.17403 -0.440883
rclavicle -3.87133e-014 -1.43125e-014
rhumerus -53.9772 -6.23432 -73.8411
rradius 29.5383
rwrist -10.0389
rhand -16.0919 -22.7257
rfingers 7.12502
rthumb 10.1115 -52.4627
lclavicle -3.87133e-014 -1.43125e-014
lhumerus -28.771 -24.711 87.9415
lradius 34.6146
lwrist 43.4005
lhand -21.5191 -2.96293
lfingers 7.12502
lthumb 4.87314 26.961
rfemur -50.375 21.2257 0.551007
rtibia 30.5035
rfoot -8.90754 -29.376
rtoes -14.0243
lfemur -21.8913 -12.1598 -19.6102
ltibia 11.0188
lfoot -10.4915 -1.70838
ltoes -14.8553
637
root 0.296539 16.4539 -33.2175 23.2043 2.9095 0.380535
lowerback -11.792 -2.68872 -6.64055
upperback -6.57924 -2.89254 -0.645227
thorax -0.0205811 -1.29446 2.71526
lowerneck -24.1663 -1.3053 6.30718
upperneck 21.4432 -5.30693 4.24064
head 10.9377 -1.31715 -0.342791
rclavicle 2.66371e-014 1.11319e-014
rhumerus -54.3989 -6.23333 -73.9713
rradius 29.9618
rwrist -10.4337
rhand -15.8214 -22.7674
rfingers 7.12502
rthumb 10.3724 -52.4916
lclavicle 2.66371e-014 1.11319e-014
lhumerus -28.5398 -25.3633 87.9517
lradius 34.9458
lwrist 43.3219
lhand -21.066 -2.97172
lfingers 7.12502
lthumb 5.31057 26.9417
rfemur -50.849 21.1616 0.330227
rtibia 30.3382
rfoot -9.4109 -29.3981
rtoes -13.437
lfemur -22.5662 -12.0615 -19.6049
ltibia 11.3502
lfoot -10.4082 -1.47899
ltoes -14.4411
638
root 0.330072 16.4605 -33.3054 23.3833 2.55298 0.191836
lowerback -11.6365 -2.54656 -6.74625
upperback -6.64422 -2.70942 -0.752849
thorax -0.192181 -1.19542 2.69233
lowerneck -23.8998 -1.5851 5.97549
upperneck 21.0487 -5.61009 4.58115
head 10.7608 -1.46275 -0.21104
rclavicle 6.75868e-015 6.36111e-015
rhumerus -54.8044 -6.22966 -74.0422
rradius 30.3158
rwrist -10.6998
rhand -15.5768 -22.6693
rfingers 7.12502
rthumb 10.6084 -52.3815
lclavicle 6.75868e-015 6.36111e-015
lhumerus -28.344 -25.9053 87.9643
lradius 35.264
lwrist 43.2171
lhand -20.5939 -2.89598
lfingers 7.12502
lthumb 5.76644 27.0056
rfemur -51.2433 20.9101 0.377306
rtibia 30.1275
rfoot -9.71026 -29.2119
rtoes -12.9391
lfemur -23.3404 -11.9552 -19.5046
ltibia 11.8501
lfoot -10.395 -1.21692
ltoes -14.043
